<svg width="500" height="520" viewBox="0 0 706 720" fill="none" xmlns="http://www.w3.org/2000/svg">
<g id="undraw_party_lqnv 1" clip-path="url(#clip0)">
<path id="Vector" d="M655.726 300.428C614.099 136.742 470.265 18.5837 301.435 13.8445C212.18 11.339 118.258 40.941 49.8768 144.529C-72.3629 329.704 57.3887 457.666 147.848 518.47C191.551 547.906 230.93 583.299 264.844 623.626C325.946 696.133 443.493 786.235 583.486 645.06C684.954 542.736 683.453 409.459 655.726 300.428Z" fill="#616161"/>
<path id="Vector_2" d="M321.925 201.384C321.925 201.384 330.437 220.41 312.913 223.914C295.39 227.419 333.441 244.943 333.441 244.943L362.981 239.936L378.001 228.42C378.001 228.42 347.96 210.396 351.966 196.377C355.971 182.358 321.925 201.384 321.925 201.384Z" fill="#894C1A"/>
<path id="Vector_3" opacity="0.1" d="M321.925 201.384C321.925 201.384 330.437 220.41 312.913 223.914C295.39 227.419 333.441 244.943 333.441 244.943L362.981 239.936L378.001 228.42C378.001 228.42 347.96 210.396 351.966 196.377C355.971 182.358 321.925 201.384 321.925 201.384Z" fill="#894C1A"/>
<path id="Vector_4" d="M36.7549 119.273C19.3965 119.273 8.83593 118.285 8.60497 118.262L8.79931 116.272C9.31054 116.322 60.6909 121.121 124.199 109.274C182.745 98.353 263.876 70.6436 317.911 0.655769L318.417 0L319.156 0.375999C319.853 0.730489 389.803 36.1445 471.9 61.8203C520.082 76.8892 562.954 85.7041 599.325 88.02C644.657 90.9082 679.912 83.6494 704.123 66.4517L705.281 68.0825C680.684 85.5542 644.982 92.9326 599.186 90.0152C562.652 87.6875 519.618 78.8413 471.278 63.7217C393.563 39.4136 326.717 6.39944 318.988 2.5303C295.014 33.3726 263.873 58.6485 226.42 77.6587C196.268 92.9639 161.98 104.265 124.51 111.25C95.5615 116.575 66.1892 119.26 36.7549 119.273V119.273Z" fill="#2F2E41"/>
<path id="Vector_5" d="M60.902 118.658L92.312 116.075L79.702 158.267L60.902 118.658Z" fill="#6C63FF"/>
<path id="Vector_6" d="M127.054 110.767L137.702 141.267L149.812 105.756L127.054 110.767Z" fill="#6C63FF"/>
<path id="Vector_7" d="M221.828 77.567L251.702 99.267L245.864 66.884L221.828 77.567Z" fill="#6C63FF"/>
<path id="Vector_8" d="M372.272 24.735L375.702 67.267L394.786 36.237L372.272 24.735Z" fill="#6C63FF"/>
<path id="Vector_9" d="M585.415 88.861L607.702 135.267L626.671 88.861H585.415Z" fill="#6C63FF"/>
<path id="Vector_10" d="M451.776 57.373L451.702 103.267L478.626 65.982L451.776 57.373Z" fill="#6C63FF"/>
<path id="Vector_11" d="M697.702 717.267H49.7021V719.267H697.702V717.267Z" fill="#2F2E41"/>
<path id="Vector_12" d="M336.945 202.575C361.664 202.575 381.702 182.537 381.702 157.819C381.702 133.1 361.664 113.062 336.945 113.062C312.227 113.062 292.189 133.1 292.189 157.819C292.189 182.537 312.227 202.575 336.945 202.575Z" fill="black"/>
<path id="Vector_13" d="M413.549 259.462L424.563 327.554L470.125 365.605C470.125 365.605 501.667 383.629 486.647 395.145C471.627 406.66 454.354 375.368 454.354 375.368C454.354 375.368 408.792 358.846 403.285 337.317C397.777 315.788 384.32 277.973 384.32 277.973L413.549 259.462Z" fill="#894C1A"/>
<path id="Vector_14" d="M255.836 470.246C255.836 470.246 262.345 532.33 260.843 536.836C259.341 541.342 263.847 612.438 263.847 612.438L292.385 605.929C292.385 605.929 296.641 568.629 293.136 532.079C293.136 532.079 303.651 497.533 293.637 477.506C283.624 457.479 255.836 470.246 255.836 470.246Z" fill="#894C1A"/>
<path id="Vector_15" d="M344.205 494.028C344.205 494.028 358.725 537.086 367.737 546.098C367.737 546.098 381.005 609.934 394.523 612.438C408.041 614.941 420.057 600.922 420.057 600.922C420.057 600.922 404.537 543.345 395.024 534.332L383.508 487.269L344.205 494.028Z" fill="#894C1A"/>
<path id="Vector_16" d="M295.89 599.921H260.843L264.848 641.477C264.848 641.477 267.352 679.528 263.346 685.536C259.341 691.544 255.836 719.587 269.855 718.586C283.874 717.585 290.383 710.57 290.383 707.566C290.383 704.562 291.885 670.015 295.39 664.007C298.894 657.999 298.894 644.481 292.886 642.478C286.878 640.475 295.89 599.921 295.89 599.921Z" fill="#2F2E41"/>
<path id="Vector_17" d="M387.013 608.432L407.04 643.98C407.04 643.98 403.535 654.494 408.041 662.505C412.547 670.516 413.549 685.536 413.549 691.544C413.549 697.552 420.558 720.586 436.079 718.583C451.6 716.581 445.091 697.552 445.091 697.552L433.075 649.488L420.057 595.415L387.013 608.432Z" fill="#2F2E41"/>
<path id="Vector_18" d="M274.862 276.986L269.354 312.033L232.805 392.141L267.352 400.652L290.883 280.991L274.862 276.986Z" fill="#894C1A"/>
<path id="Vector_19" d="M336.695 212.148C354.945 212.148 369.74 197.354 369.74 179.104C369.74 160.854 354.945 146.059 336.695 146.059C318.445 146.059 303.651 160.854 303.651 179.104C303.651 197.354 318.445 212.148 336.695 212.148Z" fill="#894C1A"/>
<path id="Vector_20" d="M392.52 233.928L373.841 225.71C373.841 225.71 345.958 239.435 312.913 223.914L286.878 228.921C286.878 228.921 286.878 272.48 282.372 275.984C277.866 279.489 272.358 294.009 275.363 302.52C278.367 311.032 283.373 334.563 274.361 339.069C265.349 343.575 235.309 357.594 226.797 373.616C218.286 389.638 168.719 378.122 166.716 398.65C164.714 419.177 198.759 442.709 187.244 464.238C175.728 485.767 170.221 490.273 203.766 492.776C237.311 495.28 270.857 469.745 298.894 489.772C326.932 509.799 361.979 516.809 375.497 505.293C389.016 493.778 406.039 469.245 428.569 469.745C451.099 470.246 469.124 466.741 466.12 452.222C463.115 437.702 478.636 445.212 463.115 426.187C447.595 407.161 402.534 398.65 396.025 380.125C389.516 361.6 359.977 354.09 359.977 354.09C359.977 354.09 354.97 347.08 362.981 342.574C370.991 338.068 392.52 233.928 392.52 233.928Z" fill="#2F2E41"/>
<path id="Vector_21" d="M293.888 233.427L286.878 228.921C286.878 228.921 253.333 247.947 256.337 257.96C259.341 267.974 261.844 264.97 260.843 273.481C259.842 281.993 255.336 282.493 262.846 284.496C270.356 286.499 272.359 281.492 272.359 288.501C272.359 295.511 284.875 293.508 284.875 293.508L293.888 233.427Z" fill="#2F2E41"/>
<path id="Vector_22" d="M386.512 236.431L392.52 233.928C392.52 233.928 420.057 254.455 417.053 273.481C414.049 292.507 401.032 272.98 399.029 277.987C397.026 282.994 390.518 282.994 390.017 291.005C389.516 299.015 396.025 300.517 389.516 302.02C383.008 303.522 369.99 267.974 369.99 267.974L386.512 236.431Z" fill="#2F2E41"/>
<path id="Vector_23" d="M367.737 138.049H305.653V173.597H367.737V138.049Z" fill="black"/>
<path id="Vector_24" d="M321.174 126.51C329.193 126.51 335.694 120.01 335.694 111.991C335.694 103.972 329.193 97.4711 321.174 97.4711C313.155 97.4711 306.655 103.972 306.655 111.991C306.655 120.01 313.155 126.51 321.174 126.51Z" fill="black"/>
<path id="Vector_25" d="M357.217 127.51C365.236 127.51 371.737 121.01 371.737 112.991C371.737 104.972 365.236 98.4711 357.217 98.4711C349.198 98.4711 342.698 104.972 342.698 112.991C342.698 121.01 349.198 127.51 357.217 127.51Z" fill="black"/>
<g id="balloon-with-string">
<path id="Vector_26" d="M558.817 298.236L469.559 388.237L470.979 389.645L560.237 299.644L558.817 298.236Z" fill="#2F2E41"/>
<g id="balloon">
<path id="Vector_27" d="M680.346 274.885C653.434 302.035 588.474 323.55 561.324 296.639C534.174 269.727 555.116 204.579 582.028 177.43C594.952 164.395 612.525 157.027 630.88 156.948C649.236 156.868 666.872 164.083 679.908 177.005C692.945 189.927 700.315 207.499 700.397 225.855C700.479 244.21 693.267 261.847 680.346 274.885V274.885Z" fill="#6C63FF"/>
<path id="Vector_28" d="M561.366 306.073C560.964 303.715 559.834 301.541 558.134 299.857C556.435 298.172 554.251 297.061 551.889 296.68L561.283 287.204L570.759 296.597L561.366 306.073Z" fill="#6C63FF"/>
<path id="Vector_29" d="M566.041 302.091C563.671 301.349 561.512 300.053 559.742 298.312C557.972 296.571 556.641 294.434 555.859 292.077L557.76 291.455C558.442 293.51 559.604 295.374 561.148 296.891C562.693 298.409 564.576 299.537 566.643 300.183L566.041 302.091Z" fill="#2F2E41"/>
<path id="Vector_30" opacity="0.4" d="M682.533 235.956C689.342 229.087 690.222 218.918 684.497 213.244C678.773 207.57 668.613 208.539 661.804 215.408C654.995 222.277 654.115 232.446 659.84 238.12C665.564 243.794 675.724 242.825 682.533 235.956Z" fill="white"/>
</g>
</g>
<path id="Vector_31" opacity="0.3" d="M104.702 277.267H98.7021V296.267H104.702V277.267Z" fill="#6C63FF"/>
<path id="Vector_32" opacity="0.3" d="M440.702 151.267H434.702V170.267H440.702V151.267Z" fill="#6C63FF"/>
<path id="Vector_33" opacity="0.3" d="M201.702 223.267H195.702V242.267H201.702V223.267Z" fill="#6C63FF"/>
<path id="Vector_34" opacity="0.3" d="M481.702 233.267H475.702V252.267H481.702V233.267Z" fill="#6C63FF"/>
<path id="Vector_35" opacity="0.3" d="M177.133 281.466L172.439 285.203L184.271 300.068L188.966 296.332L177.133 281.466Z" fill="#6C63FF"/>
<path id="Vector_36" opacity="0.3" d="M466.133 289.466L461.439 293.203L473.271 308.068L477.966 304.332L466.133 289.466Z" fill="#6C63FF"/>
<path id="Vector_37" opacity="0.3" d="M154.05 342.04L148.854 339.04L139.354 355.494L144.55 358.494L154.05 342.04Z" fill="#6C63FF"/>
<path id="Vector_38" opacity="0.3" d="M459.05 196.04L453.854 193.04L444.354 209.494L449.55 212.494L459.05 196.04Z" fill="#6C63FF"/>
<path id="Vector_39" opacity="0.3" d="M127.05 157.04L121.854 154.04L112.354 170.494L117.55 173.494L127.05 157.04Z" fill="#6C63FF"/>
</g>
<defs>
<clipPath id="clip0">
<rect width="705.281" height="719.476" fill="white"/>
</clipPath>
</defs>
</svg>
