<svg width="1068" height="832" viewBox="0 0 1068 832" fill="none" xmlns="http://www.w3.org/2000/svg">
<g id="wishes 1" clip-path="url(#clip0)">
<path id="Vector" d="M838.085 309.387C793.168 132.765 637.968 5.26939 455.796 0.15564C359.488 -2.54787 258.144 29.3934 184.359 141.168C52.4589 340.976 192.464 479.05 290.072 544.66C337.229 576.421 379.719 614.612 416.313 658.125C482.244 736.363 609.08 833.584 760.137 681.253C869.622 570.843 868.003 427.034 838.085 309.387Z" fill="#F2F2F2"/>
<path id="Vector_2" d="M988.074 470.666C977.643 474.257 975.146 488.481 978.734 498.912C982.322 509.344 989.92 517.997 993.744 528.345C995.488 533.563 996.741 538.934 997.484 544.386C999.668 557.367 1001.86 570.576 1000.18 583.631C998.579 596.016 993.562 607.692 987.964 618.854C977.123 640.466 963.936 660.819 948.641 679.545" stroke="#2F2E41" stroke-width="2"/>
<path id="Vector_3" d="M993 475.714C987.667 472.292 982.333 472.292 977 475.714V459.714H993V475.714Z" fill="#FF6584"/>
<path id="Vector_4" d="M977.042 467.375C979.528 468.634 982.277 469.285 985.064 469.273C987.851 469.262 990.595 468.589 993.07 467.31" stroke="#2F2E41" stroke-width="2"/>
<g id="right-balloon-2">
<path id="Vector_5" d="M1068 348.714C1068 394.554 1030.84 467.714 985 467.714C939.16 467.714 902 394.554 902 348.714C902 326.701 910.745 305.59 926.31 290.024C941.876 274.459 962.987 265.714 985 265.714C1007.01 265.714 1028.12 274.459 1043.69 290.024C1059.26 305.59 1068 326.701 1068 348.714V348.714Z" fill="#FF6584"/>
<path id="Vector_6" opacity="0.4" d="M1019.5 334.714C1029.16 334.714 1037 325.312 1037 313.714C1037 302.116 1029.16 292.714 1019.5 292.714C1009.84 292.714 1002 302.116 1002 313.714C1002 325.312 1009.84 334.714 1019.5 334.714Z" fill="white"/>
</g>
<path id="Vector_7" d="M79.926 457.666C90.3565 461.257 92.8535 475.481 89.2658 485.912C85.6781 496.344 78.0796 504.997 74.2563 515.345C72.5118 520.563 71.2595 525.934 70.5158 531.386C68.3316 544.367 66.1415 557.576 67.8244 570.631C69.4208 583.016 74.4384 594.692 80.0362 605.854C90.8774 627.466 104.064 647.819 119.359 666.545" stroke="#2F2E41" stroke-width="2"/>
<path id="Vector_8" d="M75 462.714C80.3333 459.292 85.6667 459.292 91 462.714V446.714H75V462.714Z" fill="#FF6584"/>
<path id="Vector_9" d="M90.9581 454.375C88.4719 455.634 85.7225 456.285 82.9359 456.273C80.1493 456.262 77.4052 455.589 74.9295 454.31" stroke="#2F2E41" stroke-width="2"/>
<g id="left-balloon">
<path id="Vector_10" d="M0 335.714C0 381.554 37.1604 454.714 83 454.714C128.84 454.714 166 381.554 166 335.714C166 313.701 157.255 292.59 141.69 277.024C126.124 261.459 105.013 252.714 83 252.714C60.987 252.714 39.8757 261.459 24.3101 277.024C8.74462 292.59 0 313.701 0 335.714V335.714Z" fill="#FF6584"/>
<path id="Vector_11" opacity="0.4" d="M48.5 321.714C58.165 321.714 66 312.312 66 300.714C66 289.116 58.165 279.714 48.5 279.714C38.835 279.714 31 289.116 31 300.714C31 312.312 38.835 321.714 48.5 321.714Z" fill="white"/>
</g>
<path id="Vector_12" d="M1008 700.714C1008 747.935 785.933 831.714 512 831.714C238.067 831.714 42 661.935 42 614.714C42 567.494 238.067 660.714 512 660.714C785.933 660.714 1008 653.494 1008 700.714Z" fill="#3F3D56"/>
<path id="Vector_13" opacity="0.1" d="M1008 700.714C1008 747.935 785.933 831.714 512 831.714C238.067 831.714 42 661.935 42 614.714C42 567.494 238.067 660.714 512 660.714C785.933 660.714 1008 653.494 1008 700.714Z" fill="black"/>
<path id="Vector_14" d="M1008 700.214C1008 747.435 785.933 785.714 512 785.714C238.067 785.714 42 661.935 42 614.714C42 567.494 238.067 614.714 512 614.714C785.933 614.714 1008 652.994 1008 700.214Z" fill="#3F3D56"/>
<path id="Vector_15" d="M436.19 567.146L426.146 631.277C426.146 631.277 376.695 657.548 411.465 658.32C446.235 659.093 610.04 658.32 610.04 658.32C610.04 658.32 641.72 658.32 591.496 630.504L581.452 563.282L436.19 567.146Z" fill="#2F2E41"/>
<path id="Vector_16" opacity="0.1" d="M404.47 657.624C412.367 650.598 426.146 643.277 426.146 643.277L436.19 579.145L581.452 579.282L591.496 642.504C603.208 648.991 610.463 653.963 614.708 657.778C621.158 656.306 628.207 650.837 591.496 630.504L581.452 563.282L436.19 567.145L426.146 631.277C426.146 631.277 384.592 653.355 404.47 657.624Z" fill="black"/>
<path id="Vector_17" d="M812.263 120.158H203.834C191.126 120.158 180.824 130.46 180.824 143.168V553.021C180.824 565.729 191.126 576.031 203.834 576.031H812.263C824.971 576.031 835.273 565.729 835.273 553.021V143.168C835.273 130.46 824.971 120.158 812.263 120.158Z" fill="#2F2E41"/>
<path id="Vector_18" d="M813.252 144.497H202.845V486.016H813.252V144.497Z" fill="#3F3D56"/>
<path id="Vector_19" d="M508.048 137.543C510.182 137.543 511.912 135.813 511.912 133.679C511.912 131.546 510.182 129.816 508.048 129.816C505.915 129.816 504.185 131.546 504.185 133.679C504.185 135.813 505.915 137.543 508.048 137.543Z" fill="#F2F2F2"/>
<path id="Vector_20" d="M835.273 513.059V553.021C835.273 556.043 834.678 559.035 833.522 561.827C832.366 564.619 830.671 567.156 828.534 569.292C826.397 571.429 823.861 573.124 821.069 574.28C818.277 575.437 815.285 576.032 812.263 576.031H203.834C200.812 576.032 197.82 575.437 195.028 574.28C192.236 573.124 189.699 571.429 187.562 569.292C185.426 567.156 183.731 564.619 182.575 561.827C181.418 559.035 180.823 556.043 180.824 553.021V513.059H835.273Z" fill="#2F2E41"/>
<path id="Vector_21" d="M678.808 700.044V707.771H263.113V701.59L263.685 700.044L273.93 672.228H670.308L678.808 700.044Z" fill="#2F2E41"/>
<path id="Vector_22" d="M838.781 692.48C838.024 695.717 835.165 699.133 828.705 702.362C805.525 713.952 758.392 699.272 758.392 699.272C758.392 699.272 722.077 693.09 722.077 676.864C723.097 676.166 724.16 675.534 725.26 674.971C735.006 669.815 767.319 657.093 824.613 675.51C828.834 676.835 832.604 679.306 835.504 682.647C837.826 685.365 839.646 688.812 838.781 692.48Z" fill="#2F2E41"/>
<path id="Vector_23" opacity="0.1" d="M838.781 692.48C810.408 703.351 785.119 704.162 759.165 686.136C746.076 677.05 734.185 674.801 725.26 674.971C735.006 669.815 767.319 657.093 824.613 675.51C828.834 676.835 832.604 679.306 835.504 682.647C837.826 685.365 839.646 688.812 838.781 692.48Z" fill="black"/>
<path id="Vector_24" d="M803.207 686.136C808.755 686.136 813.252 684.753 813.252 683.046C813.252 681.339 808.755 679.955 803.207 679.955C797.66 679.955 793.162 681.339 793.162 683.046C793.162 684.753 797.66 686.136 803.207 686.136Z" fill="#F2F2F2"/>
<path id="Vector_25" d="M508.048 559.419C516.156 559.419 522.729 552.846 522.729 544.738C522.729 536.63 516.156 530.057 508.048 530.057C499.94 530.057 493.368 536.63 493.368 544.738C493.368 552.846 499.94 559.419 508.048 559.419Z" fill="#F2F2F2"/>
<path id="Vector_26" opacity="0.1" d="M678.808 700.044V707.771H263.113V701.59L263.685 700.044H678.808Z" fill="black"/>
<path id="Vector_27" d="M871.074 304.666C860.643 308.257 858.146 322.481 861.734 332.912C865.322 343.344 872.92 351.997 876.744 362.345C878.488 367.563 879.741 372.934 880.484 378.386C882.668 391.367 884.859 404.576 883.176 417.631C881.579 430.016 876.562 441.692 870.964 452.854C860.123 474.466 846.936 494.819 831.641 513.545" stroke="#2F2E41" stroke-width="2"/>
<path id="Vector_28" d="M876 309.714C870.667 306.292 865.333 306.292 860 309.714V293.714H876V309.714Z" fill="#6C63FF"/>
<path id="Vector_29" d="M860.042 301.375C862.528 302.634 865.278 303.285 868.064 303.273C870.851 303.262 873.595 302.589 876.07 301.31" stroke="#2F2E41" stroke-width="2"/>
<g id="right-balloon-1">
<path id="Vector_30" d="M951 182.714C951 228.554 913.84 301.714 868 301.714C822.16 301.714 785 228.554 785 182.714C785 160.701 793.745 139.59 809.31 124.024C824.876 108.459 845.987 99.7143 868 99.7143C890.013 99.7143 911.124 108.459 926.69 124.024C942.255 139.59 951 160.701 951 182.714V182.714Z" fill="#6C63FF"/>
<path id="Vector_31" opacity="0.4" d="M902.5 168.714C912.165 168.714 920 159.312 920 147.714C920 136.116 912.165 126.714 902.5 126.714C892.835 126.714 885 136.116 885 147.714C885 159.312 892.835 168.714 902.5 168.714Z" fill="white"/>
</g>
<path id="Vector_32" d="M603.607 288.552V375.098L580.728 421.257V421.262L580.003 422.719L519.433 418.719L496.149 417.179L442.109 413.609V310.085L496.149 311.609L520.315 312.292L581.453 314.019L603.607 288.552Z" fill="#6C63FF"/>
<path id="Vector_33" opacity="0.1" d="M603.607 293.658V375.098L598.017 386.374V386.378L592.285 397.936V397.94L580.728 421.257L582.02 334.711L582.281 317.253L593.271 305.095V305.091L598.062 299.791L603.607 293.658Z" fill="black"/>
<path id="Vector_34" d="M606.713 265.57V295.799L603.607 300.747L598.058 309.588L593.143 317.419L582.281 334.724L582.02 334.711L437.347 327.27V297.455L437.712 297.062L454.984 278.365L461.236 271.599L472.545 259.358L606.713 265.57Z" fill="#6C63FF"/>
<path id="Vector_35" opacity="0.1" d="M582.281 304.909V334.724L437.347 327.27V297.455L437.712 297.062L582.281 304.909Z" fill="black"/>
<path id="Vector_36" opacity="0.15" d="M606.713 265.57V295.799L582.281 334.724V304.909L606.713 265.57Z" fill="black"/>
<path id="Vector_37" d="M598.075 279.479L598.062 299.791L598.058 309.588L598.017 386.374V386.378L592.285 397.936L593.143 317.419L593.271 305.095V305.091L593.466 286.9L454.984 278.365L461.236 271.599L598.075 279.479Z" fill="#2F2E41"/>
<path id="Vector_38" d="M530.105 280.477L520.402 301.55L520.315 312.292L519.433 418.719L496.149 417.179V300.147L508.572 280.477H530.105Z" fill="#2F2E41"/>
<path id="Vector_39" d="M498.15 281.895C492.544 283.76 486.519 283.972 480.796 282.504C479.681 282.289 478.636 281.804 477.752 281.093C476.8 280.041 476.149 278.752 475.869 277.362C474.857 274.49 474.296 271.477 474.206 268.433C474.276 265.393 475.439 262.221 477.919 260.461C478.423 260.157 478.896 259.802 479.329 259.402C479.847 258.749 480.219 257.993 480.421 257.185C482.117 252.125 485.406 246.781 490.681 245.971C495.549 245.223 499.978 248.623 503.729 251.814L511.96 258.819C512.873 256.364 514.507 254.243 516.648 252.733C518.788 251.224 521.335 250.397 523.954 250.361C526.573 250.326 529.142 251.083 531.323 252.533C533.504 253.984 535.195 256.06 536.175 258.489C541.163 252.87 547.449 248.557 554.486 245.925C556.045 245.344 557.876 244.871 559.298 245.736C560.176 246.384 560.843 247.278 561.213 248.305C563.454 253.209 564.668 258.52 564.781 263.91C565.357 263.713 565.981 263.714 566.556 263.912C567.131 264.111 567.623 264.495 567.955 265.005C568.592 266.044 568.956 267.227 569.011 268.445C569.231 270.326 569.34 272.219 569.339 274.113C569.338 276.11 569.153 278.267 567.852 279.782C566.169 281.74 563.265 281.947 560.685 282.008C561.928 283.111 561.321 285.331 559.947 286.265C558.573 287.198 556.795 287.215 555.134 287.199C548.73 287.137 541.918 286.955 536.591 283.4C534.488 281.996 532.727 280.127 530.618 278.731C525.449 275.311 518.96 275.147 512.977 275.431C507.577 275.686 503.291 280.173 498.15 281.895Z" fill="#2F2E41"/>
<path id="Vector_40" d="M496.977 280.477C496.977 280.477 443.559 287.931 436.105 320.23L447.285 318.574L455.153 332.653C455.153 332.653 463.435 301.182 487.867 293.728C512.299 286.274 520.995 285.032 520.995 285.032C520.995 285.032 537.973 289.173 553.294 338.451L561.99 326.442L577.312 329.755C577.312 329.755 566.131 291.244 535.902 280.477L496.977 280.477Z" fill="#2F2E41"/>
</g>
<defs>
<clipPath id="clip0">
<rect width="1068" height="831.714" fill="white"/>
</clipPath>
</defs>
</svg>
